<?xml version="1.0" encoding="UTF-8" standalone="no"?>
<svg
   xmlns:dc="http://purl.org/dc/elements/1.1/"
   xmlns:cc="http://creativecommons.org/ns#"
   xmlns:rdf="http://www.w3.org/1999/02/22-rdf-syntax-ns#"
   xmlns:svg="http://www.w3.org/2000/svg"
   xmlns="http://www.w3.org/2000/svg"
   xmlns:sodipodi="http://sodipodi.sourceforge.net/DTD/sodipodi-0.dtd"
   xmlns:inkscape="http://www.inkscape.org/namespaces/inkscape"
   aria-hidden="true"
   focusable="false"
   data-prefix="fas"
   data-icon="external-link-alt"
   class="svg-inline--fa fa-external-link-alt fa-w-16"
   role="img"
   viewBox="0 0 512 512"
   version="1.1"
   id="svg4"
   sodipodi:docname="external-link-alt-solid.svg"
   inkscape:version="0.92.3 (2405546, 2018-03-11)">
  <metadata
     id="metadata10">
    <rdf:RDF>
      <cc:Work
         rdf:about="">
        <dc:format>image/svg+xml</dc:format>
        <dc:type
           rdf:resource="http://purl.org/dc/dcmitype/StillImage" />
      </cc:Work>
    </rdf:RDF>
  </metadata>
  <defs
     id="defs8" />
  <sodipodi:namedview
     pagecolor="#ffffff"
     bordercolor="#666666"
     borderopacity="1"
     objecttolerance="10"
     gridtolerance="10"
     guidetolerance="10"
     inkscape:pageopacity="0"
     inkscape:pageshadow="2"
     inkscape:window-width="1920"
     inkscape:window-height="1052"
     id="namedview6"
     showgrid="false"
     inkscape:zoom="0.4609375"
     inkscape:cx="256"
     inkscape:cy="256"
     inkscape:window-x="1920"
     inkscape:window-y="0"
     inkscape:window-maximized="1"
     inkscape:current-layer="svg4" />
  <path
     d="m 405.875,310.5 h -27.25 A 13.625,13.625 0 0 0 365,324.125 V 419.5 H 92.5 V 147 h 122.625 a 13.625,13.625 0 0 0 13.625,-13.625 v -27.25 A 13.625,13.625 0 0 0 215.125,92.5 H 78.875 A 40.875,40.875 0 0 0 38,133.375 v 299.75 A 40.875,40.875 0 0 0 78.875,474 h 299.75 A 40.875,40.875 0 0 0 419.5,433.125 v -109 A 13.625,13.625 0 0 0 405.875,310.5 Z M 453.5625,38 h -109 c -18.19789,0 -27.29258,22.063984 -14.47656,34.91406 l 30.42633,30.42633 -207.55133,207.47469 a 20.4375,20.4375 0 0 0 0,28.95312 l 19.30492,19.27086 a 20.4375,20.4375 0 0 0 28.95312,0 l 207.44914,-207.50875 30.41782,30.38375 C 451.85937,194.6875 474,185.74609 474,167.4375 v -109 A 20.4375,20.4375 0 0 0 453.5625,38 Z"
     id="path2"
     style="fill:#838383;fill-opacity:1;stroke-width:0.8515625"
     inkscape:connector-curvature="0" />
</svg>
