<?xml version="1.0" encoding="UTF-8" standalone="no"?>
<!-- Created with Inkscape (http://www.inkscape.org/) -->

<svg
   xmlns:dc="http://purl.org/dc/elements/1.1/"
   xmlns:cc="http://creativecommons.org/ns#"
   xmlns:rdf="http://www.w3.org/1999/02/22-rdf-syntax-ns#"
   xmlns:svg="http://www.w3.org/2000/svg"
   xmlns="http://www.w3.org/2000/svg"
   xmlns:sodipodi="http://sodipodi.sourceforge.net/DTD/sodipodi-0.dtd"
   xmlns:inkscape="http://www.inkscape.org/namespaces/inkscape"
   width="131.23334mm"
   height="131.23334mm"
   viewBox="0 0 131.23334 131.23334"
   version="1.1"
   id="svg857"
   inkscape:version="0.92.3 (2405546, 2018-03-11)"
   sodipodi:docname="exercise-not-started.svg">
  <defs
     id="defs851" />
  <sodipodi:namedview
     id="base"
     pagecolor="#ffffff"
     bordercolor="#666666"
     borderopacity="1.0"
     inkscape:pageopacity="0.0"
     inkscape:pageshadow="2"
     inkscape:zoom="0.98994949"
     inkscape:cx="-118.4815"
     inkscape:cy="254.21267"
     inkscape:document-units="mm"
     inkscape:current-layer="layer4"
     showgrid="false"
     fit-margin-top="0"
     fit-margin-left="0"
     fit-margin-right="0"
     fit-margin-bottom="0"
     inkscape:window-width="1920"
     inkscape:window-height="1052"
     inkscape:window-x="1920"
     inkscape:window-y="0"
     inkscape:window-maximized="1" />
  <metadata
     id="metadata854">
    <rdf:RDF>
      <cc:Work
         rdf:about="">
        <dc:format>image/svg+xml</dc:format>
        <dc:type
           rdf:resource="http://purl.org/dc/dcmitype/StillImage" />
        <dc:title />
      </cc:Work>
    </rdf:RDF>
  </metadata>
  <g
     inkscape:label="Layer 1"
     inkscape:groupmode="layer"
     id="layer1"
     transform="translate(-109.00833,-167.12738)">
    <rect
       style="opacity:1;fill:#ffffff;fill-opacity:1;fill-rule:nonzero;stroke:#000000;stroke-width:0.1;stroke-linecap:round;stroke-linejoin:round;stroke-miterlimit:4;stroke-dasharray:none;stroke-opacity:1;paint-order:stroke markers fill"
       id="rect1410"
       width="79.379051"
       height="74.033661"
       x="136.53709"
       y="195.19469" />
  </g>
  <g
     inkscape:groupmode="layer"
     id="layer4"
     inkscape:label="Layer 2">
    <path
       transform="translate(-109.00833,-167.12738)"
       style="fill:#838383;fill-opacity:1;stroke-width:0.26458332"
       d="m 174.625,167.12738 c -36.24792,0 -65.61667,29.36875 -65.61667,65.61667 0,36.24791 29.36875,65.61666 65.61667,65.61666 36.24791,0 65.61666,-29.36875 65.61666,-65.61666 0,-36.24792 -29.36875,-65.61667 -65.61666,-65.61667 z m 0,80.43334 -17.22437,17.35666 c -1.24355,1.24354 -3.25438,1.24354 -4.49792,0 l -10.45104,-10.4775 c -1.24354,-1.24354 -1.24354,-3.25437 0,-4.49791 l 17.35666,-17.19792 c -21.38235,21.38235 27.08888,-26.9666 14.81667,-14.81667 l 17.22438,-17.35666 c 1.24354,-1.24355 3.25437,-1.24355 4.49791,0 l 10.4775,10.4775 c 1.24354,1.24354 1.24354,3.25437 0,4.49791 l -17.38312,17.19792 c 10.88399,-10.88399 -23.19127,23.19127 -14.81667,14.81667 z"
       id="path2"
       inkscape:connector-curvature="0"
       sodipodi:nodetypes="ssssscccccccccsccc" />
  </g>
</svg>
