<?xml version="1.0" encoding="UTF-8" standalone="no"?>
<svg
   xmlns:dc="http://purl.org/dc/elements/1.1/"
   xmlns:cc="http://creativecommons.org/ns#"
   xmlns:rdf="http://www.w3.org/1999/02/22-rdf-syntax-ns#"
   xmlns:svg="http://www.w3.org/2000/svg"
   xmlns="http://www.w3.org/2000/svg"
   xmlns:sodipodi="http://sodipodi.sourceforge.net/DTD/sodipodi-0.dtd"
   xmlns:inkscape="http://www.inkscape.org/namespaces/inkscape"
   aria-hidden="true"
   focusable="false"
   data-prefix="fas"
   data-icon="bell"
   class="svg-inline--fa fa-bell fa-w-14"
   role="img"
   viewBox="0 0 448 512"
   version="1.1"
   id="svg4"
   sodipodi:docname="notification_new.svg"
   inkscape:version="0.92.3 (2405546, 2018-03-11)">
  <metadata
     id="metadata10">
    <rdf:RDF>
      <cc:Work
         rdf:about="">
        <dc:format>image/svg+xml</dc:format>
        <dc:type
           rdf:resource="http://purl.org/dc/dcmitype/StillImage" />
        <dc:title></dc:title>
      </cc:Work>
    </rdf:RDF>
  </metadata>
  <defs
     id="defs8" />
  <sodipodi:namedview
     pagecolor="#ffffff"
     bordercolor="#666666"
     borderopacity="1"
     objecttolerance="10"
     gridtolerance="10"
     guidetolerance="10"
     inkscape:pageopacity="0"
     inkscape:pageshadow="2"
     inkscape:window-width="1920"
     inkscape:window-height="1020"
     id="namedview6"
     showgrid="false"
     inkscape:zoom="1.3037281"
     inkscape:cx="220.75957"
     inkscape:cy="66.537937"
     inkscape:window-x="0"
     inkscape:window-y="32"
     inkscape:window-maximized="1"
     inkscape:current-layer="layer3" />
  <g
     transform="matrix(3.7795276,0,0,3.7795276,-479.42354,261.58176)"
     id="layer1"
     inkscape:label="Layer 1" />
  <g
     inkscape:groupmode="layer"
     id="layer2"
     inkscape:label="Layer 1">
    <path
       d="m 224,512 c 35.32,0 63.97,-28.65 63.97,-64 H 160.03 c 0,35.35 28.65,64 63.97,64 z M 434.64424,367.03576 c -4.08609,-4.39063 -4.17921,-13.99536 -9.26971,-19.89593 C 406.39591,325.14105 383.92,288.66406 383.92,208 383.92,130.3 329.44,68.1 255.98,52.84 V 32 C 255.98,14.33 241.66,0 224,0 206.34,0 192.02,14.33 192.02,32 V 52.84 C 118.56,68.1 64.08,130.3 64.08,208 c 0,102.3 -36.15,133.53 -55.47,154.29 -6,6.45 -8.66,14.16 -8.61,21.71 0.11,16.4 12.98,32 32.1,32 h 383.8 c 19.12,0 19.52542,-13.70169 19.62542,-30.10169 0.05,-7.55 5.11882,-12.42255 -0.88118,-18.86255 z"
       id="path2"
       style="fill:#838383;fill-opacity:1"
       inkscape:connector-curvature="0"
       sodipodi:nodetypes="sccscsscssscsccsscc" />
  </g>
  <g
     inkscape:label="Layer 1 copy"
     id="g842"
     inkscape:groupmode="layer"
     style="display:none">
    <path
       style="fill:#838383;fill-opacity:1"
       id="path840"
       d="m 224,512 c 35.32,0 63.97,-28.65 63.97,-64 H 160.03 c 0,35.35 28.65,64 63.97,64 z M 439.39,362.29 C 420.07,341.53 383.92,310.3 383.92,208 383.92,130.3 329.44,68.1 255.98,52.84 V 32 C 255.98,14.33 241.66,0 224,0 206.34,0 192.02,14.33 192.02,32 V 52.84 C 118.56,68.1 64.08,130.3 64.08,208 c 0,102.3 -36.15,133.53 -55.47,154.29 -6,6.45 -8.66,14.16 -8.61,21.71 0.11,16.4 12.98,32 32.1,32 h 383.8 c 19.12,0 32,-15.6 32.1,-32 0.05,-7.55 -2.61,-15.27 -8.61,-21.71 z"
       inkscape:connector-curvature="0" />
  </g>
  <g
     inkscape:groupmode="layer"
     id="layer3"
     inkscape:label="Layer 2"
     style="display:inline">
    <circle
       style="opacity:1;fill:#e90000;fill-opacity:1;fill-rule:nonzero;stroke:none;stroke-width:0.37795275;stroke-linecap:round;stroke-linejoin:round;stroke-miterlimit:4;stroke-dasharray:none;stroke-opacity:1;paint-order:stroke markers fill"
       id="path838"
       cx="344.94916"
       cy="408.94916"
       r="103.05085" />
  </g>
</svg>
