<?xml version="1.0" encoding="UTF-8" standalone="no"?>
<svg
   xmlns:dc="http://purl.org/dc/elements/1.1/"
   xmlns:cc="http://creativecommons.org/ns#"
   xmlns:rdf="http://www.w3.org/1999/02/22-rdf-syntax-ns#"
   xmlns:svg="http://www.w3.org/2000/svg"
   xmlns="http://www.w3.org/2000/svg"
   xmlns:sodipodi="http://sodipodi.sourceforge.net/DTD/sodipodi-0.dtd"
   xmlns:inkscape="http://www.inkscape.org/namespaces/inkscape"
   aria-hidden="true"
   focusable="false"
   data-prefix="fas"
   data-icon="file-alt"
   class="svg-inline--fa fa-file-alt fa-w-12"
   role="img"
   viewBox="0 0 512 512"
   version="1.1"
   id="svg4"
   sodipodi:docname="open-exercise.svg"
   inkscape:version="0.92.3 (2405546, 2018-03-11)"
   width="512"
   height="512">
  <metadata
     id="metadata10">
    <rdf:RDF>
      <cc:Work
         rdf:about="">
        <dc:format>image/svg+xml</dc:format>
        <dc:type
           rdf:resource="http://purl.org/dc/dcmitype/StillImage" />
        <dc:title />
      </cc:Work>
    </rdf:RDF>
  </metadata>
  <defs
     id="defs8" />
  <sodipodi:namedview
     pagecolor="#ffffff"
     bordercolor="#666666"
     borderopacity="1"
     objecttolerance="10"
     gridtolerance="10"
     guidetolerance="10"
     inkscape:pageopacity="0"
     inkscape:pageshadow="2"
     inkscape:window-width="1920"
     inkscape:window-height="1020"
     id="namedview6"
     showgrid="false"
     inkscape:zoom="0.65186405"
     inkscape:cx="-53.284938"
     inkscape:cy="129.60716"
     inkscape:window-x="0"
     inkscape:window-y="32"
     inkscape:window-maximized="1"
     inkscape:current-layer="svg4" />
  <path
     d="M 283.30192,153.61774 V 37.584531 H 112.66483 c -11.34735,0 -20.47643,9.129082 -20.47643,20.47645 V 453.93903 c 0,11.34737 9.12908,20.47645 20.47643,20.47645 h 286.67033 c 11.34735,0 20.47644,-9.12908 20.47644,-20.47645 V 174.0942 H 303.77837 c -11.26204,0 -20.47645,-9.2144 -20.47645,-20.47646 z m 54.60387,201.35178 c 0,5.63102 -4.60719,10.23823 -10.23823,10.23823 H 184.33241 c -5.63101,0 -10.23823,-4.60721 -10.23823,-10.23823 v -6.82549 c 0,-5.63103 4.60722,-10.23821 10.23823,-10.23821 h 143.33515 c 5.63104,0 10.23823,4.60718 10.23823,10.23821 z m 0,-54.60388 c 0,5.63101 -4.60719,10.23822 -10.23823,10.23822 H 184.33241 c -5.63101,0 -10.23823,-4.60721 -10.23823,-10.23822 v -6.82549 c 0,-5.63103 4.60722,-10.23822 10.23823,-10.23822 h 143.33515 c 5.63104,0 10.23823,4.60719 10.23823,10.23822 z m 0,-61.42935 v 6.82548 c 0,5.63102 -4.60719,10.23822 -10.23823,10.23822 H 184.33241 c -5.63101,0 -10.23823,-4.6072 -10.23823,-10.23822 v -6.82548 c 0,-5.63103 4.60722,-10.23823 10.23823,-10.23823 h 143.33515 c 5.63104,0 10.23823,4.6072 10.23823,10.23823 z m 81.90581,-97.34847 v 5.20443 H 310.60386 V 37.584517 h 5.20444 c 5.46038,0 10.66481,2.132974 14.50414,5.972305 l 83.52686,83.612168 c 3.83933,3.83933 5.9723,9.04378 5.9723,14.41883 z"
     id="path2"
     style="fill:#838383;fill-opacity:1;stroke-width:0.85318553"
     inkscape:connector-curvature="0" />
</svg>
